<svg width="1024" height="1024" viewBox="0 0 1024 1024" fill="none" xmlns="http://www.w3.org/2000/svg">
  <defs>
    <linearGradient id="bgGradient" x1="160" y1="120" x2="860" y2="920" gradientUnits="userSpaceOnUse">
      <stop stop-color="#0F172A"/>
      <stop offset="1" stop-color="#1E3A8A"/>
    </linearGradient>
    <linearGradient id="panelGradient" x1="220" y1="220" x2="804" y2="804" gradientUnits="userSpaceOnUse">
      <stop stop-color="#EFF6FF"/>
      <stop offset="1" stop-color="#BFDBFE"/>
    </linearGradient>
    <linearGradient id="tileBlue" x1="0" y1="0" x2="1" y2="1">
      <stop stop-color="#2563EB"/>
      <stop offset="1" stop-color="#60A5FA"/>
    </linearGradient>
    <linearGradient id="tileCyan" x1="0" y1="0" x2="1" y2="1">
      <stop stop-color="#0891B2"/>
      <stop offset="1" stop-color="#67E8F9"/>
    </linearGradient>
    <linearGradient id="tileSlate" x1="0" y1="0" x2="1" y2="1">
      <stop stop-color="#334155"/>
      <stop offset="1" stop-color="#64748B"/>
    </linearGradient>
    <filter id="shadow" x="110" y="110" width="804" height="804" filterUnits="userSpaceOnUse" color-interpolation-filters="sRGB">
      <feDropShadow dx="0" dy="28" stdDeviation="32" flood-color="#020617" flood-opacity="0.28"/>
    </filter>
  </defs>

  <rect width="1024" height="1024" rx="230" fill="url(#bgGradient)"/>
  <circle cx="214" cy="194" r="118" fill="#60A5FA" fill-opacity="0.14"/>
  <circle cx="830" cy="824" r="160" fill="#67E8F9" fill-opacity="0.12"/>

  <g filter="url(#shadow)">
    <rect x="172" y="168" width="680" height="688" rx="142" fill="url(#panelGradient)"/>
    <rect x="172" y="168" width="680" height="688" rx="142" stroke="white" stroke-opacity="0.34" stroke-width="8"/>
  </g>

  <rect x="236" y="236" width="552" height="84" rx="42" fill="#0F172A" fill-opacity="0.1"/>
  <circle cx="286" cy="278" r="14" fill="#2563EB"/>
  <circle cx="334" cy="278" r="14" fill="#06B6D4"/>
  <circle cx="382" cy="278" r="14" fill="#94A3B8"/>

  <rect x="236" y="370" width="236" height="188" rx="48" fill="url(#tileBlue)"/>
  <rect x="236" y="586" width="236" height="188" rx="48" fill="url(#tileSlate)"/>
  <rect x="552" y="370" width="236" height="404" rx="48" fill="url(#tileCyan)"/>

  <rect x="288" y="430" width="132" height="14" rx="7" fill="white" fill-opacity="0.82"/>
  <rect x="288" y="462" width="104" height="14" rx="7" fill="white" fill-opacity="0.58"/>
  <circle cx="355" cy="522" r="28" fill="white" fill-opacity="0.9"/>
  <rect x="346" y="486" width="18" height="72" rx="9" fill="#1D4ED8"/>
  <rect x="319" y="513" width="72" height="18" rx="9" fill="#1D4ED8"/>

  <rect x="288" y="646" width="132" height="14" rx="7" fill="white" fill-opacity="0.8"/>
  <rect x="288" y="678" width="88" height="14" rx="7" fill="white" fill-opacity="0.56"/>
  <rect x="300" y="724" width="108" height="16" rx="8" fill="white" fill-opacity="0.86"/>

  <circle cx="670" cy="490" r="76" fill="white" fill-opacity="0.92"/>
  <circle cx="670" cy="490" r="28" fill="#0891B2"/>
  <path d="M670 390L687 418L720 414L710 446L737 466L708 480L714 514L682 508L670 536L658 508L626 514L632 480L603 466L630 446L620 414L653 418L670 390Z" fill="#0F172A" fill-opacity="0.18"/>
  <rect x="610" y="610" width="120" height="18" rx="9" fill="white" fill-opacity="0.84"/>
  <rect x="610" y="646" width="92" height="18" rx="9" fill="white" fill-opacity="0.58"/>
</svg>
